Title: Les Signes Vitaux (2009) Aka Vital Signs

Director: Sophie Deraspe

Writer: Sophie Deraspe

Stars: Marie-Hélène Bellavance, Francis Ducharme and Suzanne St-Michel

Country: Canada

Plot: Triggered by the death of a family member a young woman embarks on a singular journey of helping people who are about to die. The dying have nothing to lose and need lasting moments of intimacy that Simone finds herself willing to give at no cost. But Boris won\'t let her get away with it quite that easily. He realizes how well she hides behind those intense but short lived relationships. He won\'t hesitate to provoke her in a violent burst.

Imdb: http://www.imdb.com/title/tt1593295/


SUBTITLE: ENGLISH (Sub/Idx)

Rip Spect:
General
Complete name              : Les.Signes.Vitaux.2009.DVDRip.XviD.AC3.HORiZON-ArtSubs
Format                           : AVI
Format/Info                      : Audio Video Interleave
File size                        : 1.53 GiB
Duration                         : 1h 27mn
Overall bit rate                 : 2 503 Kbps
Writing application              : FairUse Wizard - http://fairusewizard.com
Writing library                  : The best and REALLY easy backup tool

Video
ID                               : 0
Format                           : MPEG-4 Visual
Format profile                   : Advanced Simple@L5
Format settings, BVOP            : 1
Format settings, QPel            : No
Format settings, GMC             : No warppoints
Format settings, Matrix          : Default (MPEG)
Muxing mode                      : Packed bitstream
Codec ID                         : XVID
Codec ID/Hint                    : XviD
Duration                         : 1h 27mn
Bit rate                         : 2 301 Kbps
Width                            : 688 pixels
Height                           : 384 pixels
Display aspect ratio             : 16:9
Frame rate                       : 23.976 fps
Color space                      : YUV
Chroma subsampling               : 4:2:0
Bit depth                        : 8 bits
Scan type                        : Progressive
Compression mode                 : Lossy
Bits/(Pixel*Frame)               : 0.363
Stream size                      : 1.41 GiB (92%)
Writing library                  : XviD 1.2.0.dev47 (UTC 2006-11-01)

Audio
ID                               : 1
Format                           : AC-3
Format/Info                      : Audio Coding 3
Mode extension                   : CM (complete main)
Codec ID                         : 2000
Duration                         : 1h 27mn
Bit rate mode                    : Constant
Bit rate                         : 192 Kbps
Channel(s)                       : 2 channels
Channel positions                : Front: L R
Sampling rate                    : 48.0 KHz
Bit depth                        : 16 bits
Compression mode                 : Lossy
Stream size                      : 121 MiB (8%)
Alignment                        : Split accross interleaves
Interleave, duration             : 42 ms (1.00 video frame)
Interleave, preload duration     : 500 ms
